<?xml version="1.0" encoding="UTF-8" standalone="no"?>
<!DOCTYPE svg PUBLIC "-//W3C//DTD SVG 1.1//EN" "http://www.w3.org/Graphics/SVG/1.1/DTD/svg11.dtd">
<svg width="100%" height="100%" viewBox="0 0 30 30" version="1.1" xmlns="http://www.w3.org/2000/svg" xmlns:xlink="http://www.w3.org/1999/xlink" xml:space="preserve" xmlns:serif="http://www.serif.com/" style="fill-rule:evenodd;clip-rule:evenodd;stroke-linejoin:round;stroke-miterlimit:2;">
    <path d="M15.042,0.383C23.12,0.383 29.678,6.941 29.678,15.019C29.678,23.097 23.12,29.655 15.042,29.655C6.965,29.655 0.407,23.097 0.407,15.019C0.407,6.941 6.965,0.383 15.042,0.383ZM24,15.137C24,16.897 23.613,18.4 22.84,19.647C22.067,20.893 21.003,21.517 19.65,21.517C18.297,21.517 17.233,20.89 16.46,19.637C15.687,18.383 15.3,16.883 15.3,15.137C15.3,13.323 15.69,11.803 16.47,10.577C17.25,9.35 18.313,8.737 19.66,8.737C21.007,8.737 22.067,9.36 22.84,10.607C23.613,11.853 24,13.363 24,15.137ZM11.84,21.197L11.84,9.057L8.04,9.057L8.04,10.797L9.78,10.797L9.78,21.197L11.84,21.197ZM17.3,15.117C17.3,16.343 17.513,17.427 17.94,18.367C18.367,19.307 18.947,19.777 19.68,19.777C20.413,19.777 20.983,19.337 21.39,18.457C21.797,17.577 22,16.463 22,15.117C22,13.877 21.787,12.793 21.36,11.867C20.933,10.94 20.363,10.477 19.65,10.477C18.937,10.477 18.367,10.96 17.94,11.927C17.513,12.893 17.3,13.957 17.3,15.117Z"/>
</svg>
