<?xml version="1.0" encoding="UTF-8" standalone="no"?>
<!DOCTYPE svg PUBLIC "-//W3C//DTD SVG 1.1//EN" "http://www.w3.org/Graphics/SVG/1.1/DTD/svg11.dtd">
<svg width="100%" height="100%" viewBox="0 0 30 30" version="1.1" xmlns="http://www.w3.org/2000/svg" xmlns:xlink="http://www.w3.org/1999/xlink" xml:space="preserve" xmlns:serif="http://www.serif.com/" style="fill-rule:evenodd;clip-rule:evenodd;stroke-linejoin:round;stroke-miterlimit:2;">
    <path d="M15.042,0.383C23.12,0.383 29.678,6.941 29.678,15.019C29.678,23.097 23.12,29.655 15.042,29.655C6.965,29.655 0.407,23.097 0.407,15.019C0.407,6.941 6.965,0.383 15.042,0.383ZM18.39,10.797L18.39,9.057L13.11,9.057L11.85,15.217L12.23,15.217C12.723,14.683 13.357,14.417 14.13,14.417C14.903,14.417 15.543,14.65 16.05,15.117C16.557,15.583 16.81,16.233 16.81,17.067C16.81,17.9 16.567,18.56 16.08,19.047C15.593,19.533 15.003,19.777 14.31,19.777C13.19,19.777 12.243,19.237 11.47,18.157L10.87,19.917C11.803,20.983 13.003,21.517 14.47,21.517C15.79,21.517 16.857,21.117 17.67,20.317C18.483,19.517 18.89,18.463 18.89,17.157C18.89,15.983 18.527,14.987 17.8,14.167C17.073,13.347 16.13,12.937 14.97,12.937L14.03,12.977L14.51,10.797L18.39,10.797Z"/>
</svg>
