<?xml version="1.0" encoding="UTF-8" standalone="no"?>
<!DOCTYPE svg PUBLIC "-//W3C//DTD SVG 1.1//EN" "http://www.w3.org/Graphics/SVG/1.1/DTD/svg11.dtd">
<svg width="100%" height="100%" viewBox="0 0 30 30" version="1.1" xmlns="http://www.w3.org/2000/svg" xmlns:xlink="http://www.w3.org/1999/xlink" xml:space="preserve" xmlns:serif="http://www.serif.com/" style="fill-rule:evenodd;clip-rule:evenodd;stroke-linejoin:round;stroke-miterlimit:2;">
    <path d="M15.042,0.383C23.12,0.383 29.678,6.941 29.678,15.019C29.678,23.097 23.12,29.655 15.042,29.655C6.965,29.655 0.407,23.097 0.407,15.019C0.407,6.941 6.965,0.383 15.042,0.383ZM22.491,10.797L22.491,9.057L17.211,9.057L15.951,15.217L16.331,15.217C16.824,14.683 17.458,14.417 18.231,14.417C19.004,14.417 19.644,14.65 20.151,15.117C20.658,15.583 20.911,16.233 20.911,17.067C20.911,17.9 20.668,18.56 20.181,19.047C19.694,19.533 19.104,19.777 18.411,19.777C17.291,19.777 16.344,19.237 15.571,18.157L14.971,19.917C15.904,20.983 17.104,21.517 18.571,21.517C19.891,21.517 20.958,21.117 21.771,20.317C22.584,19.517 22.991,18.463 22.991,17.157C22.991,15.983 22.628,14.987 21.901,14.167C21.174,13.347 20.231,12.937 19.071,12.937L18.131,12.977L18.611,10.797L22.491,10.797ZM11.291,21.197L11.291,9.057L7.491,9.057L7.491,10.797L9.231,10.797L9.231,21.197L11.291,21.197Z"/>
</svg>
