<?xml version="1.0" encoding="UTF-8" standalone="no"?>
<!DOCTYPE svg PUBLIC "-//W3C//DTD SVG 1.1//EN" "http://www.w3.org/Graphics/SVG/1.1/DTD/svg11.dtd">
<svg width="100%" height="100%" viewBox="0 0 30 30" version="1.1" xmlns="http://www.w3.org/2000/svg" xmlns:xlink="http://www.w3.org/1999/xlink" xml:space="preserve" xmlns:serif="http://www.serif.com/" style="fill-rule:evenodd;clip-rule:evenodd;stroke-linejoin:round;stroke-miterlimit:2;">
    <path d="M15.042,0.383C23.12,0.383 29.678,6.941 29.678,15.019C29.678,23.097 23.12,29.655 15.042,29.655C6.965,29.655 0.407,23.097 0.407,15.019C0.407,6.941 6.965,0.383 15.042,0.383ZM13.23,12.237C13.23,10.997 13.787,10.377 14.9,10.377C16.013,10.377 16.57,10.997 16.57,12.237C16.57,12.757 16.387,13.193 16.02,13.547C15.653,13.9 15.217,14.077 14.71,14.077L14.45,14.077L14.45,15.457L14.89,15.417C14.943,15.403 14.997,15.397 15.05,15.397C15.53,15.397 15.96,15.62 16.34,16.067C16.72,16.513 16.91,16.997 16.91,17.517C16.91,18.143 16.733,18.677 16.38,19.117C16.027,19.557 15.553,19.777 14.96,19.777C14.367,19.777 13.877,19.577 13.49,19.177C13.103,18.777 12.91,18.283 12.91,17.697L10.85,17.697C10.85,18.777 11.243,19.683 12.03,20.417C12.817,21.15 13.763,21.517 14.87,21.517C16.057,21.517 17.027,21.167 17.78,20.467C18.533,19.767 18.91,18.83 18.91,17.657C18.91,16.137 18.39,15.15 17.35,14.697C18.123,14.177 18.51,13.33 18.51,12.157C18.51,11.103 18.19,10.27 17.55,9.657C16.91,9.043 16.06,8.737 15,8.737C13.94,8.737 13.083,9.05 12.43,9.677C11.777,10.303 11.397,11.157 11.29,12.237L13.23,12.237Z"/>
</svg>
