<?xml version="1.0" encoding="UTF-8" standalone="no"?>
<!DOCTYPE svg PUBLIC "-//W3C//DTD SVG 1.1//EN" "http://www.w3.org/Graphics/SVG/1.1/DTD/svg11.dtd">
<svg width="100%" height="100%" viewBox="0 0 30 30" version="1.1" xmlns="http://www.w3.org/2000/svg" xmlns:xlink="http://www.w3.org/1999/xlink" xml:space="preserve" xmlns:serif="http://www.serif.com/" style="fill-rule:evenodd;clip-rule:evenodd;stroke-linejoin:round;stroke-miterlimit:2;">
    <g id="Layer1">
        <path d="M14.977,3.16C21.553,3.16 26.891,8.498 26.891,15.073C26.891,21.648 21.553,26.987 14.977,26.987C8.402,26.987 3.064,21.648 3.064,15.073C3.064,8.498 8.402,3.16 14.977,3.16ZM22.193,10.835L22.193,9.492L16.498,9.492L15.388,15.375L16.709,15.546C16.917,15.218 17.204,14.951 17.568,14.746C17.933,14.54 18.342,14.437 18.795,14.437C19.524,14.437 20.114,14.669 20.564,15.132C21.015,15.596 21.24,16.229 21.24,17.031C21.24,17.875 21.006,18.552 20.537,19.062C20.068,19.572 19.495,19.828 18.818,19.828C18.256,19.828 17.775,19.647 17.377,19.285C16.978,18.923 16.724,18.382 16.615,17.664L15.138,17.789C15.232,18.752 15.608,19.526 16.267,20.109C16.926,20.692 17.776,20.984 18.818,20.984C20.089,20.984 21.092,20.52 21.826,19.593C22.43,18.838 22.732,17.942 22.732,16.906C22.732,15.817 22.388,14.927 21.701,14.234C21.013,13.541 20.17,13.195 19.17,13.195C18.414,13.195 17.693,13.434 17.006,13.914L17.623,10.835L22.193,10.835ZM11.537,20.789L11.537,9.289L10.631,9.289C10.386,9.783 9.969,10.294 9.381,10.82C8.792,11.346 8.105,11.794 7.318,12.164L7.318,13.523C7.756,13.362 8.249,13.119 8.799,12.796C9.348,12.473 9.792,12.151 10.131,11.828L10.131,20.789L11.537,20.789Z"/>
    </g>
</svg>
